<mxfile host="Electron" modified="2024-05-05T12:10:55.813Z" agent="Mozilla/5.0 (Windows NT 10.0; Win64; x64) AppleWebKit/537.36 (KHTML, like Gecko) draw.io/24.2.5 Chrome/120.0.6099.109 Electron/28.1.0 Safari/537.36" etag="0NIQEM0RHkhIKmG2Hlba" version="24.2.5" type="device">
  <diagram name="第 1 页" id="aOes2U0OPbT4OVhpEOER">
    <mxGraphModel dx="1434" dy="836" grid="1" gridSize="10" guides="1" tooltips="1" connect="1" arrows="1" fold="1" page="1" pageScale="1" pageWidth="850" pageHeight="1100" math="0" shadow="0">
      <root>
        <mxCell id="0" />
        <mxCell id="1" parent="0" />
        <mxCell id="qycw3sTByn0TKshVB9K8-4" value="灰烬" style="rounded=0;whiteSpace=wrap;html=1;fillColor=#f8cecc;strokeColor=#b85450;" parent="1" vertex="1">
          <mxGeometry x="40" y="120" width="80" height="40" as="geometry" />
        </mxCell>
        <mxCell id="qycw3sTByn0TKshVB9K8-8" value="重油" style="rounded=0;whiteSpace=wrap;html=1;fillColor=#fff2cc;strokeColor=#d6b656;" parent="1" vertex="1">
          <mxGeometry x="320" y="200" width="80" height="40" as="geometry" />
        </mxCell>
        <mxCell id="qycw3sTByn0TKshVB9K8-12" value="油" style="rounded=0;whiteSpace=wrap;html=1;fillColor=#fff2cc;strokeColor=#d6b656;" parent="1" vertex="1">
          <mxGeometry x="320" y="240" width="80" height="40" as="geometry" />
        </mxCell>
        <mxCell id="qycw3sTByn0TKshVB9K8-15" style="edgeStyle=orthogonalEdgeStyle;rounded=0;orthogonalLoop=1;jettySize=auto;html=1;exitX=0.5;exitY=1;exitDx=0;exitDy=0;entryX=0.5;entryY=0;entryDx=0;entryDy=0;" parent="1" source="qycw3sTByn0TKshVB9K8-13" target="qycw3sTByn0TKshVB9K8-14" edge="1">
          <mxGeometry relative="1" as="geometry" />
        </mxCell>
        <mxCell id="qycw3sTByn0TKshVB9K8-13" value="Barnarda C Wood" style="rounded=0;whiteSpace=wrap;html=1;fillColor=#dae8fc;strokeColor=#6c8ebf;" parent="1" vertex="1">
          <mxGeometry x="140" y="40" width="120" height="40" as="geometry" />
        </mxCell>
        <mxCell id="qycw3sTByn0TKshVB9K8-16" style="edgeStyle=orthogonalEdgeStyle;rounded=0;orthogonalLoop=1;jettySize=auto;html=1;exitX=0;exitY=0.5;exitDx=0;exitDy=0;entryX=1;entryY=0.5;entryDx=0;entryDy=0;" parent="1" source="qycw3sTByn0TKshVB9K8-14" target="qycw3sTByn0TKshVB9K8-4" edge="1">
          <mxGeometry relative="1" as="geometry" />
        </mxCell>
        <mxCell id="qycw3sTByn0TKshVB9K8-20" value="" style="edgeStyle=orthogonalEdgeStyle;rounded=0;orthogonalLoop=1;jettySize=auto;html=1;" parent="1" source="qycw3sTByn0TKshVB9K8-14" target="qycw3sTByn0TKshVB9K8-19" edge="1">
          <mxGeometry relative="1" as="geometry" />
        </mxCell>
        <mxCell id="qycw3sTByn0TKshVB9K8-14" value="Coke Oven" style="rounded=1;whiteSpace=wrap;html=1;" parent="1" vertex="1">
          <mxGeometry x="160" y="120" width="80" height="40" as="geometry" />
        </mxCell>
        <mxCell id="qycw3sTByn0TKshVB9K8-18" value="" style="edgeStyle=orthogonalEdgeStyle;rounded=0;orthogonalLoop=1;jettySize=auto;html=1;" parent="1" source="qycw3sTByn0TKshVB9K8-17" target="qycw3sTByn0TKshVB9K8-14" edge="1">
          <mxGeometry relative="1" as="geometry" />
        </mxCell>
        <mxCell id="qycw3sTByn0TKshVB9K8-17" value="Xenoxene" style="rounded=0;whiteSpace=wrap;html=1;fillColor=#dae8fc;strokeColor=#6c8ebf;" parent="1" vertex="1">
          <mxGeometry x="280" y="120" width="80" height="40" as="geometry" />
        </mxCell>
        <mxCell id="qycw3sTByn0TKshVB9K8-22" value="" style="edgeStyle=orthogonalEdgeStyle;rounded=0;orthogonalLoop=1;jettySize=auto;html=1;" parent="1" source="qycw3sTByn0TKshVB9K8-19" target="qycw3sTByn0TKshVB9K8-21" edge="1">
          <mxGeometry relative="1" as="geometry" />
        </mxCell>
        <mxCell id="qycw3sTByn0TKshVB9K8-19" value="Raw Radox" style="rounded=0;whiteSpace=wrap;html=1;" parent="1" vertex="1">
          <mxGeometry x="160" y="200" width="80" height="40" as="geometry" />
        </mxCell>
        <mxCell id="qycw3sTByn0TKshVB9K8-32" style="edgeStyle=orthogonalEdgeStyle;rounded=0;orthogonalLoop=1;jettySize=auto;html=1;exitX=1;exitY=0.5;exitDx=0;exitDy=0;entryX=0;entryY=0.5;entryDx=0;entryDy=0;" parent="1" source="qycw3sTByn0TKshVB9K8-21" target="qycw3sTByn0TKshVB9K8-8" edge="1">
          <mxGeometry relative="1" as="geometry" />
        </mxCell>
        <mxCell id="qycw3sTByn0TKshVB9K8-21" value="蒸馏塔" style="rounded=1;whiteSpace=wrap;html=1;" parent="1" vertex="1">
          <mxGeometry x="160" y="280" width="80" height="40" as="geometry" />
        </mxCell>
        <mxCell id="qycw3sTByn0TKshVB9K8-23" value="杂酚油" style="rounded=0;whiteSpace=wrap;html=1;fillColor=#fff2cc;strokeColor=#d6b656;" parent="1" vertex="1">
          <mxGeometry x="320" y="280" width="80" height="40" as="geometry" />
        </mxCell>
        <mxCell id="qycw3sTByn0TKshVB9K8-24" value="水" style="rounded=0;whiteSpace=wrap;html=1;fillColor=#f8cecc;strokeColor=#b85450;" parent="1" vertex="1">
          <mxGeometry x="320" y="320" width="80" height="40" as="geometry" />
        </mxCell>
        <mxCell id="qycw3sTByn0TKshVB9K8-34" value="" style="edgeStyle=orthogonalEdgeStyle;rounded=0;orthogonalLoop=1;jettySize=auto;html=1;" parent="1" source="qycw3sTByn0TKshVB9K8-25" target="qycw3sTByn0TKshVB9K8-33" edge="1">
          <mxGeometry relative="1" as="geometry" />
        </mxCell>
        <mxCell id="qycw3sTByn0TKshVB9K8-25" value="Fermented Bacterial Sluge" style="rounded=0;whiteSpace=wrap;html=1;" parent="1" vertex="1">
          <mxGeometry x="320" y="360" width="80" height="40" as="geometry" />
        </mxCell>
        <mxCell id="qycw3sTByn0TKshVB9K8-26" value="发酵生物质" style="rounded=0;whiteSpace=wrap;html=1;fillColor=#fff2cc;strokeColor=#d6b656;" parent="1" vertex="1">
          <mxGeometry x="320" y="400" width="80" height="40" as="geometry" />
        </mxCell>
        <mxCell id="qycw3sTByn0TKshVB9K8-38" value="" style="edgeStyle=orthogonalEdgeStyle;rounded=0;orthogonalLoop=1;jettySize=auto;html=1;" parent="1" source="qycw3sTByn0TKshVB9K8-27" target="qycw3sTByn0TKshVB9K8-37" edge="1">
          <mxGeometry relative="1" as="geometry" />
        </mxCell>
        <mxCell id="qycw3sTByn0TKshVB9K8-27" value="Super Heavy Radox" style="rounded=0;whiteSpace=wrap;html=1;" parent="1" vertex="1">
          <mxGeometry x="320" y="440" width="80" height="40" as="geometry" />
        </mxCell>
        <mxCell id="qycw3sTByn0TKshVB9K8-41" style="edgeStyle=orthogonalEdgeStyle;rounded=0;orthogonalLoop=1;jettySize=auto;html=1;exitX=1;exitY=0.5;exitDx=0;exitDy=0;entryX=0;entryY=0.5;entryDx=0;entryDy=0;" parent="1" source="qycw3sTByn0TKshVB9K8-28" target="qycw3sTByn0TKshVB9K8-39" edge="1">
          <mxGeometry relative="1" as="geometry" />
        </mxCell>
        <mxCell id="qycw3sTByn0TKshVB9K8-28" value="Heavy Radox" style="rounded=0;whiteSpace=wrap;html=1;" parent="1" vertex="1">
          <mxGeometry x="320" y="480" width="80" height="40" as="geometry" />
        </mxCell>
        <mxCell id="qycw3sTByn0TKshVB9K8-29" value="Diluted Xenoxene" style="rounded=0;whiteSpace=wrap;html=1;" parent="1" vertex="1">
          <mxGeometry x="320" y="520" width="80" height="40" as="geometry" />
        </mxCell>
        <mxCell id="qycw3sTByn0TKshVB9K8-48" style="edgeStyle=orthogonalEdgeStyle;rounded=0;orthogonalLoop=1;jettySize=auto;html=1;exitX=1;exitY=0.5;exitDx=0;exitDy=0;entryX=0;entryY=0.5;entryDx=0;entryDy=0;" parent="1" source="qycw3sTByn0TKshVB9K8-30" target="qycw3sTByn0TKshVB9K8-46" edge="1">
          <mxGeometry relative="1" as="geometry" />
        </mxCell>
        <mxCell id="qycw3sTByn0TKshVB9K8-30" value="Light Radox" style="rounded=0;whiteSpace=wrap;html=1;" parent="1" vertex="1">
          <mxGeometry x="320" y="560" width="80" height="40" as="geometry" />
        </mxCell>
        <mxCell id="qycw3sTByn0TKshVB9K8-52" style="edgeStyle=orthogonalEdgeStyle;rounded=0;orthogonalLoop=1;jettySize=auto;html=1;exitX=1;exitY=0.5;exitDx=0;exitDy=0;entryX=0;entryY=0.5;entryDx=0;entryDy=0;" parent="1" source="qycw3sTByn0TKshVB9K8-31" target="qycw3sTByn0TKshVB9K8-51" edge="1">
          <mxGeometry relative="1" as="geometry">
            <Array as="points">
              <mxPoint x="440" y="620" />
              <mxPoint x="440" y="660" />
            </Array>
          </mxGeometry>
        </mxCell>
        <mxCell id="qycw3sTByn0TKshVB9K8-31" value="Super Light Radox" style="rounded=0;whiteSpace=wrap;html=1;" parent="1" vertex="1">
          <mxGeometry x="320" y="600" width="80" height="40" as="geometry" />
        </mxCell>
        <mxCell id="qycw3sTByn0TKshVB9K8-36" value="" style="edgeStyle=orthogonalEdgeStyle;rounded=0;orthogonalLoop=1;jettySize=auto;html=1;" parent="1" source="qycw3sTByn0TKshVB9K8-33" target="qycw3sTByn0TKshVB9K8-35" edge="1">
          <mxGeometry relative="1" as="geometry" />
        </mxCell>
        <mxCell id="qycw3sTByn0TKshVB9K8-33" value="小蒸馏" style="rounded=1;whiteSpace=wrap;html=1;" parent="1" vertex="1">
          <mxGeometry x="440" y="360" width="80" height="40" as="geometry" />
        </mxCell>
        <mxCell id="qycw3sTByn0TKshVB9K8-35" value="Mutagen" style="rounded=0;whiteSpace=wrap;html=1;fillColor=#fff2cc;strokeColor=#d6b656;" parent="1" vertex="1">
          <mxGeometry x="560" y="360" width="80" height="40" as="geometry" />
        </mxCell>
        <mxCell id="qycw3sTByn0TKshVB9K8-50" style="edgeStyle=orthogonalEdgeStyle;rounded=0;orthogonalLoop=1;jettySize=auto;html=1;exitX=0.5;exitY=1;exitDx=0;exitDy=0;" parent="1" source="qycw3sTByn0TKshVB9K8-37" edge="1">
          <mxGeometry relative="1" as="geometry">
            <mxPoint x="480" y="500" as="targetPoint" />
          </mxGeometry>
        </mxCell>
        <mxCell id="qycw3sTByn0TKshVB9K8-37" value="离心" style="rounded=1;whiteSpace=wrap;html=1;" parent="1" vertex="1">
          <mxGeometry x="440" y="440" width="80" height="40" as="geometry" />
        </mxCell>
        <mxCell id="qycw3sTByn0TKshVB9K8-49" style="edgeStyle=orthogonalEdgeStyle;rounded=0;orthogonalLoop=1;jettySize=auto;html=1;exitX=0.5;exitY=1;exitDx=0;exitDy=0;" parent="1" source="qycw3sTByn0TKshVB9K8-39" edge="1">
          <mxGeometry relative="1" as="geometry">
            <mxPoint x="480" y="580" as="targetPoint" />
            <Array as="points">
              <mxPoint x="600" y="540" />
              <mxPoint x="481" y="540" />
            </Array>
          </mxGeometry>
        </mxCell>
        <mxCell id="qycw3sTByn0TKshVB9K8-39" value="石油裂化" style="rounded=1;whiteSpace=wrap;html=1;" parent="1" vertex="1">
          <mxGeometry x="560" y="480" width="80" height="40" as="geometry" />
        </mxCell>
        <mxCell id="qycw3sTByn0TKshVB9K8-45" value="" style="edgeStyle=orthogonalEdgeStyle;rounded=0;orthogonalLoop=1;jettySize=auto;html=1;" parent="1" source="qycw3sTByn0TKshVB9K8-44" target="qycw3sTByn0TKshVB9K8-39" edge="1">
          <mxGeometry relative="1" as="geometry" />
        </mxCell>
        <mxCell id="qycw3sTByn0TKshVB9K8-47" style="edgeStyle=orthogonalEdgeStyle;rounded=0;orthogonalLoop=1;jettySize=auto;html=1;exitX=0;exitY=0.5;exitDx=0;exitDy=0;entryX=1;entryY=0.5;entryDx=0;entryDy=0;" parent="1" source="qycw3sTByn0TKshVB9K8-44" target="qycw3sTByn0TKshVB9K8-46" edge="1">
          <mxGeometry relative="1" as="geometry" />
        </mxCell>
        <mxCell id="qycw3sTByn0TKshVB9K8-56" style="edgeStyle=orthogonalEdgeStyle;rounded=0;orthogonalLoop=1;jettySize=auto;html=1;exitX=0;exitY=0.5;exitDx=0;exitDy=0;entryX=1;entryY=0.5;entryDx=0;entryDy=0;" parent="1" source="qycw3sTByn0TKshVB9K8-44" target="qycw3sTByn0TKshVB9K8-51" edge="1">
          <mxGeometry relative="1" as="geometry" />
        </mxCell>
        <mxCell id="qycw3sTByn0TKshVB9K8-44" value="银电浆" style="rounded=0;whiteSpace=wrap;html=1;fillColor=#dae8fc;strokeColor=#6c8ebf;" parent="1" vertex="1">
          <mxGeometry x="680" y="480" width="80" height="40" as="geometry" />
        </mxCell>
        <mxCell id="qycw3sTByn0TKshVB9K8-53" style="edgeStyle=orthogonalEdgeStyle;rounded=0;orthogonalLoop=1;jettySize=auto;html=1;exitX=0.5;exitY=1;exitDx=0;exitDy=0;" parent="1" source="qycw3sTByn0TKshVB9K8-46" edge="1">
          <mxGeometry relative="1" as="geometry">
            <mxPoint x="480" y="660" as="targetPoint" />
            <Array as="points">
              <mxPoint x="600" y="620" />
              <mxPoint x="480" y="620" />
            </Array>
          </mxGeometry>
        </mxCell>
        <mxCell id="qycw3sTByn0TKshVB9K8-46" value="石油裂化" style="rounded=1;whiteSpace=wrap;html=1;" parent="1" vertex="1">
          <mxGeometry x="560" y="560" width="80" height="40" as="geometry" />
        </mxCell>
        <mxCell id="qycw3sTByn0TKshVB9K8-55" style="edgeStyle=orthogonalEdgeStyle;rounded=0;orthogonalLoop=1;jettySize=auto;html=1;exitX=0.5;exitY=1;exitDx=0;exitDy=0;entryX=0.5;entryY=0;entryDx=0;entryDy=0;" parent="1" source="qycw3sTByn0TKshVB9K8-51" target="qycw3sTByn0TKshVB9K8-54" edge="1">
          <mxGeometry relative="1" as="geometry" />
        </mxCell>
        <mxCell id="qycw3sTByn0TKshVB9K8-51" value="石油裂化" style="rounded=1;whiteSpace=wrap;html=1;" parent="1" vertex="1">
          <mxGeometry x="560" y="640" width="80" height="40" as="geometry" />
        </mxCell>
        <mxCell id="qycw3sTByn0TKshVB9K8-58" value="" style="edgeStyle=orthogonalEdgeStyle;rounded=0;orthogonalLoop=1;jettySize=auto;html=1;" parent="1" source="qycw3sTByn0TKshVB9K8-54" target="qycw3sTByn0TKshVB9K8-57" edge="1">
          <mxGeometry relative="1" as="geometry" />
        </mxCell>
        <mxCell id="qycw3sTByn0TKshVB9K8-54" value="裂化 Radox" style="rounded=0;whiteSpace=wrap;html=1;" parent="1" vertex="1">
          <mxGeometry x="560" y="720" width="80" height="40" as="geometry" />
        </mxCell>
        <mxCell id="qycw3sTByn0TKshVB9K8-64" style="edgeStyle=orthogonalEdgeStyle;rounded=0;orthogonalLoop=1;jettySize=auto;html=1;exitX=0;exitY=0.5;exitDx=0;exitDy=0;entryX=1;entryY=0.5;entryDx=0;entryDy=0;" parent="1" source="qycw3sTByn0TKshVB9K8-57" target="qycw3sTByn0TKshVB9K8-59" edge="1">
          <mxGeometry relative="1" as="geometry" />
        </mxCell>
        <mxCell id="qycw3sTByn0TKshVB9K8-57" value="蒸馏" style="rounded=1;whiteSpace=wrap;html=1;" parent="1" vertex="1">
          <mxGeometry x="440" y="720" width="80" height="40" as="geometry" />
        </mxCell>
        <mxCell id="qycw3sTByn0TKshVB9K8-59" value="灰烬" style="rounded=0;whiteSpace=wrap;html=1;fillColor=#f8cecc;strokeColor=#b85450;" parent="1" vertex="1">
          <mxGeometry x="320" y="720" width="80" height="40" as="geometry" />
        </mxCell>
        <mxCell id="qycw3sTByn0TKshVB9K8-66" style="edgeStyle=orthogonalEdgeStyle;rounded=0;orthogonalLoop=1;jettySize=auto;html=1;exitX=1;exitY=0.5;exitDx=0;exitDy=0;entryX=0.5;entryY=0;entryDx=0;entryDy=0;" parent="1" source="qycw3sTByn0TKshVB9K8-60" target="qycw3sTByn0TKshVB9K8-65" edge="1">
          <mxGeometry relative="1" as="geometry" />
        </mxCell>
        <mxCell id="qycw3sTByn0TKshVB9K8-60" value="Radox Gas" style="rounded=0;whiteSpace=wrap;html=1;" parent="1" vertex="1">
          <mxGeometry x="320" y="760" width="80" height="40" as="geometry" />
        </mxCell>
        <mxCell id="qycw3sTByn0TKshVB9K8-62" style="edgeStyle=orthogonalEdgeStyle;rounded=0;orthogonalLoop=1;jettySize=auto;html=1;exitX=0;exitY=0.5;exitDx=0;exitDy=0;entryX=0;entryY=0.5;entryDx=0;entryDy=0;" parent="1" source="qycw3sTByn0TKshVB9K8-61" target="qycw3sTByn0TKshVB9K8-30" edge="1">
          <mxGeometry relative="1" as="geometry">
            <Array as="points">
              <mxPoint x="300" y="820" />
              <mxPoint x="300" y="580" />
            </Array>
          </mxGeometry>
        </mxCell>
        <mxCell id="qycw3sTByn0TKshVB9K8-61" value="Light Radox" style="rounded=0;whiteSpace=wrap;html=1;" parent="1" vertex="1">
          <mxGeometry x="320" y="800" width="80" height="40" as="geometry" />
        </mxCell>
        <mxCell id="qycw3sTByn0TKshVB9K8-71" value="" style="edgeStyle=orthogonalEdgeStyle;rounded=0;orthogonalLoop=1;jettySize=auto;html=1;" parent="1" source="qycw3sTByn0TKshVB9K8-65" target="qycw3sTByn0TKshVB9K8-70" edge="1">
          <mxGeometry relative="1" as="geometry" />
        </mxCell>
        <mxCell id="qycw3sTByn0TKshVB9K8-65" value="大化反" style="rounded=1;whiteSpace=wrap;html=1;" parent="1" vertex="1">
          <mxGeometry x="440" y="800" width="80" height="40" as="geometry" />
        </mxCell>
        <mxCell id="qycw3sTByn0TKshVB9K8-69" value="" style="edgeStyle=orthogonalEdgeStyle;rounded=0;orthogonalLoop=1;jettySize=auto;html=1;" parent="1" source="qycw3sTByn0TKshVB9K8-67" target="qycw3sTByn0TKshVB9K8-65" edge="1">
          <mxGeometry relative="1" as="geometry" />
        </mxCell>
        <mxCell id="qycw3sTByn0TKshVB9K8-67" value="氧电浆" style="rounded=0;whiteSpace=wrap;html=1;fillColor=#dae8fc;strokeColor=#6c8ebf;" parent="1" vertex="1">
          <mxGeometry x="560" y="800" width="80" height="40" as="geometry" />
        </mxCell>
        <mxCell id="qycw3sTByn0TKshVB9K8-68" value="钛电浆" style="rounded=0;whiteSpace=wrap;html=1;fillColor=#dae8fc;strokeColor=#6c8ebf;" parent="1" vertex="1">
          <mxGeometry x="640" y="800" width="80" height="40" as="geometry" />
        </mxCell>
        <mxCell id="qycw3sTByn0TKshVB9K8-70" value="Molten Radox Polymer" style="rounded=0;whiteSpace=wrap;html=1;fillColor=#d5e8d4;strokeColor=#82b366;" parent="1" vertex="1">
          <mxGeometry x="440" y="880" width="80" height="40" as="geometry" />
        </mxCell>
      </root>
    </mxGraphModel>
  </diagram>
</mxfile>
